<svg width="17" height="17" viewBox="0 0 17 17" fill="none" xmlns="http://www.w3.org/2000/svg">
<path d="M7.32812 7.35938C6.70833 7.35938 6.14062 7.19531 5.625 6.86719C5.11458 6.53906 4.70573 6.09896 4.39844 5.54688C4.09635 4.98958 3.94531 4.3776 3.94531 3.71094C3.94531 3.04948 4.09635 2.44792 4.39844 1.90625C4.70573 1.35938 5.11458 0.924479 5.625 0.601562C6.14062 0.278646 6.70833 0.117188 7.32812 0.117188C7.95312 0.117188 8.52083 0.276042 9.03125 0.59375C9.54167 0.911458 9.94792 1.34115 10.25 1.88281C10.5521 2.42448 10.7031 3.02865 10.7031 3.69531C10.7031 4.36719 10.5495 4.98177 10.2422 5.53906C9.9401 6.09115 9.53385 6.53385 9.02344 6.86719C8.51302 7.19531 7.94792 7.35938 7.32812 7.35938ZM7.32812 6.16406C7.70833 6.16406 8.05729 6.05469 8.375 5.83594C8.69792 5.61719 8.95312 5.32031 9.14062 4.94531C9.33333 4.57031 9.42969 4.15365 9.42969 3.69531C9.42969 3.24219 9.33594 2.83594 9.14844 2.47656C8.96094 2.11719 8.70573 1.83333 8.38281 1.625C8.0651 1.41667 7.71354 1.3125 7.32812 1.3125C6.94271 1.3125 6.59115 1.41927 6.27344 1.63281C5.95573 1.84115 5.70052 2.1276 5.50781 2.49219C5.3151 2.85156 5.21875 3.25781 5.21875 3.71094C5.21875 4.16927 5.3151 4.58594 5.50781 4.96094C5.70052 5.33073 5.95573 5.625 6.27344 5.84375C6.59635 6.05729 6.94792 6.16406 7.32812 6.16406ZM2.42188 14.6016C1.13542 14.6016 0.492188 14.1823 0.492188 13.3438C0.492188 12.8281 0.648438 12.2812 0.960938 11.7031C1.27344 11.125 1.72656 10.5807 2.32031 10.0703C2.91406 9.55469 3.63021 9.13802 4.46875 8.82031C5.3125 8.4974 6.26562 8.33594 7.32812 8.33594C7.96875 8.33594 8.57292 8.40104 9.14062 8.53125C9.71354 8.65625 10.2396 8.83073 10.7188 9.05469C10.7188 9.36198 10.7422 9.64062 10.7891 9.89062C10.8411 10.1406 10.9193 10.3724 11.0234 10.5859C10.5703 10.2786 10.0312 10.026 9.40625 9.82812C8.78646 9.63021 8.09375 9.53125 7.32812 9.53125C6.43229 9.53125 5.63802 9.65885 4.94531 9.91406C4.25781 10.1693 3.67708 10.4922 3.20312 10.8828C2.73438 11.2682 2.3776 11.6693 2.13281 12.0859C1.89323 12.4974 1.77344 12.8646 1.77344 13.1875C1.77344 13.2708 1.79427 13.3281 1.83594 13.3594C1.8776 13.3906 1.95052 13.4062 2.05469 13.4062H12.3047V14.6016H2.42188ZM14.2891 6.6875C14.7474 6.6875 15.1641 6.80208 15.5391 7.03125C15.9193 7.25521 16.2188 7.55729 16.4375 7.9375C16.6615 8.3125 16.7734 8.72656 16.7734 9.17969C16.7734 9.72135 16.612 10.2057 16.2891 10.6328C15.9661 11.0547 15.5052 11.388 14.9062 11.6328L15.9453 12.6641C15.9922 12.7161 16.0156 12.7708 16.0156 12.8281C16.0156 12.8802 15.9974 12.9245 15.9609 12.9609L14.8984 14L15.6641 14.7656C15.7057 14.8125 15.7266 14.8594 15.7266 14.9062C15.7318 14.9583 15.7109 15.0052 15.6641 15.0469L14.4219 16.2812C14.3802 16.3281 14.3333 16.349 14.2812 16.3438C14.2292 16.3438 14.1823 16.3255 14.1406 16.2891L13.4844 15.625C13.4115 15.5417 13.375 15.4609 13.375 15.3828V11.5234C12.8958 11.3307 12.5104 11.026 12.2188 10.6094C11.9323 10.1875 11.7891 9.71094 11.7891 9.17969C11.7891 8.72135 11.8984 8.30469 12.1172 7.92969C12.3411 7.55469 12.6432 7.25521 13.0234 7.03125C13.4036 6.80208 13.8255 6.6875 14.2891 6.6875ZM14.2812 7.85156C14.0677 7.85156 13.8854 7.92969 13.7344 8.08594C13.5833 8.23698 13.5078 8.41667 13.5078 8.625C13.5078 8.84375 13.5833 9.02865 13.7344 9.17969C13.8906 9.33073 14.0729 9.40625 14.2812 9.40625C14.4948 9.40625 14.6745 9.33073 14.8203 9.17969C14.9714 9.02865 15.0469 8.84375 15.0469 8.625C15.0469 8.41667 14.9714 8.23698 14.8203 8.08594C14.6745 7.92969 14.4948 7.85156 14.2812 7.85156Z" fill="#1098F7"/>
</svg>
