<svg width="16" height="14" viewBox="0 0 16 14" fill="none" xmlns="http://www.w3.org/2000/svg">
<path d="M2.70898 13.0566C2.47461 13.0566 2.29297 12.998 2.16406 12.8809C2.03516 12.7676 1.96484 12.625 1.95312 12.4531C1.94531 12.2812 2.00391 12.1133 2.12891 11.9492C2.21484 11.8398 2.31641 11.6992 2.43359 11.5273C2.55078 11.3594 2.66602 11.1836 2.7793 11C2.89648 10.8125 2.99805 10.6387 3.08398 10.4785C2.4707 10.1816 1.93555 9.80078 1.47852 9.33594C1.02539 8.87109 0.673828 8.34961 0.423828 7.77148C0.173828 7.19336 0.0488281 6.58398 0.0488281 5.94336C0.0488281 5.18945 0.222656 4.48242 0.570312 3.82227C0.921875 3.1582 1.40625 2.57812 2.02344 2.08203C2.64453 1.58203 3.36523 1.19141 4.18555 0.910156C5.00977 0.628906 5.89258 0.488281 6.83398 0.488281C7.77539 0.488281 8.65625 0.628906 9.47656 0.910156C10.3008 1.19141 11.0234 1.58203 11.6445 2.08203C12.2656 2.57812 12.75 3.1582 13.0977 3.82227C13.4453 4.48242 13.6191 5.18945 13.6191 5.94336C13.6191 6.45508 13.5371 6.95508 13.373 7.44336C13.3418 7.43945 13.3125 7.43945 13.2852 7.44336C13.2617 7.44336 13.2363 7.44531 13.209 7.44922C13.1113 7.28516 12.9805 7.15625 12.8164 7.0625C12.6562 6.96484 12.4863 6.90625 12.3066 6.88672C12.3965 6.57031 12.4414 6.25586 12.4414 5.94336C12.4414 5.35352 12.2969 4.80078 12.0078 4.28516C11.7188 3.76953 11.3184 3.31445 10.8066 2.91992C10.2949 2.52539 9.69922 2.2168 9.01953 1.99414C8.34375 1.77148 7.61523 1.66016 6.83398 1.66016C6.05664 1.66016 5.32812 1.77148 4.64844 1.99414C3.96875 2.2168 3.37305 2.52539 2.86133 2.91992C2.34961 3.31445 1.94922 3.76953 1.66016 4.28516C1.375 4.80078 1.23242 5.35352 1.23242 5.94336C1.23242 6.45508 1.3418 6.94141 1.56055 7.40234C1.7832 7.85938 2.10547 8.2793 2.52734 8.66211C2.94922 9.04102 3.45898 9.37109 4.05664 9.65234C4.24414 9.74219 4.35547 9.85547 4.39062 9.99219C4.42969 10.125 4.40625 10.2734 4.32031 10.4375C4.21094 10.6367 4.06055 10.8652 3.86914 11.123C3.67773 11.3848 3.50781 11.6074 3.35938 11.791C3.33203 11.8223 3.32422 11.8457 3.33594 11.8613C3.34766 11.8809 3.37109 11.8828 3.40625 11.8672C3.57812 11.7969 3.79883 11.6836 4.06836 11.5273C4.33789 11.375 4.61523 11.2031 4.90039 11.0117C5.18945 10.8242 5.45117 10.6445 5.68555 10.4727C5.79883 10.3828 5.9082 10.3184 6.01367 10.2793C6.11914 10.2363 6.23438 10.2148 6.35938 10.2148C6.4375 10.2188 6.51562 10.2227 6.59375 10.2266C6.67578 10.2266 6.75586 10.2266 6.83398 10.2266C7.04102 10.2266 7.24219 10.2168 7.4375 10.1973C7.63672 10.1777 7.83008 10.1523 8.01758 10.1211V11.2754C7.76367 11.3223 7.5 11.3555 7.22656 11.375C6.95703 11.3945 6.68164 11.3984 6.40039 11.3867C5.99023 11.6836 5.55078 11.957 5.08203 12.207C4.61328 12.4609 4.16602 12.666 3.74023 12.8223C3.31836 12.9785 2.97461 13.0566 2.70898 13.0566ZM9.3125 11.4395C9.21875 11.4395 9.13867 11.4043 9.07227 11.334C9.00586 11.2676 8.97266 11.1875 8.97266 11.0938V10.0801C8.97266 9.98242 9.00586 9.90039 9.07227 9.83398C9.13867 9.76758 9.21875 9.73438 9.3125 9.73438C9.41016 9.73438 9.49219 9.76758 9.55859 9.83398C9.62891 9.90039 9.66406 9.98242 9.66406 10.0801V11.0938C9.66406 11.1875 9.62891 11.2676 9.55859 11.334C9.49219 11.4043 9.41016 11.4395 9.3125 11.4395ZM10.7129 12.3828C10.6152 12.3828 10.5332 12.3477 10.4668 12.2773C10.4004 12.2109 10.3672 12.1309 10.3672 12.0371V9.13672C10.3672 9.04297 10.4004 8.96289 10.4668 8.89648C10.5332 8.82617 10.6152 8.79102 10.7129 8.79102C10.8105 8.79102 10.8926 8.82617 10.959 8.89648C11.0254 8.96289 11.0586 9.04297 11.0586 9.13672V12.0371C11.0586 12.1309 11.0254 12.2109 10.959 12.2773C10.8926 12.3477 10.8105 12.3828 10.7129 12.3828ZM12.1074 13.3965C12.0098 13.3965 11.9277 13.3633 11.8613 13.2969C11.7988 13.2305 11.7676 13.1484 11.7676 13.0508V8.13477C11.7676 8.0332 11.8008 7.94922 11.8672 7.88281C11.9336 7.81641 12.0137 7.7832 12.1074 7.7832C12.2051 7.7832 12.2871 7.81641 12.3535 7.88281C12.4199 7.94922 12.4531 8.0332 12.4531 8.13477V13.0508C12.4531 13.1484 12.4199 13.2305 12.3535 13.2969C12.2871 13.3633 12.2051 13.3965 12.1074 13.3965ZM13.502 12.793C13.4082 12.793 13.3262 12.7598 13.2559 12.6934C13.1895 12.627 13.1562 12.5449 13.1562 12.4473V8.72656C13.1562 8.63281 13.1895 8.55273 13.2559 8.48633C13.3262 8.41992 13.4082 8.38672 13.502 8.38672C13.5996 8.38672 13.6816 8.41992 13.748 8.48633C13.8145 8.55273 13.8477 8.63281 13.8477 8.72656V12.4473C13.8477 12.5449 13.8145 12.627 13.748 12.6934C13.6816 12.7598 13.5996 12.793 13.502 12.793ZM14.8965 11.6387C14.8027 11.6387 14.7227 11.6055 14.6562 11.5391C14.5898 11.4766 14.5566 11.3965 14.5566 11.2988V9.875C14.5566 9.77734 14.5898 9.69531 14.6562 9.62891C14.7227 9.5625 14.8027 9.5293 14.8965 9.5293C14.998 9.5293 15.082 9.5625 15.1484 9.62891C15.2148 9.69531 15.248 9.77734 15.248 9.875V11.2988C15.248 11.4004 15.2148 11.4824 15.1484 11.5449C15.082 11.6074 14.998 11.6387 14.8965 11.6387Z" fill="#313947" fill-opacity="0.6"/>
</svg>
