<svg width="23" height="6" viewBox="0 0 23 6" fill="none" xmlns="http://www.w3.org/2000/svg">
<path d="M2.84708 5.48148C2.40726 5.48148 2.00989 5.37731 1.65495 5.16898C1.30001 4.95293 1.01837 4.66744 0.810041 4.3125C0.601707 3.95756 0.497541 3.5679 0.497541 3.14352C0.497541 2.71142 0.601707 2.3179 0.810041 1.96296C1.01837 1.60802 1.30001 1.32639 1.65495 1.11806C2.00989 0.902006 2.40726 0.793981 2.84708 0.793981C3.27146 0.793981 3.66112 0.902006 4.01606 1.11806C4.371 1.32639 4.65263 1.60802 4.86097 1.96296C5.0693 2.3179 5.17347 2.71142 5.17347 3.14352C5.17347 3.5679 5.0693 3.95756 4.86097 4.3125C4.65263 4.66744 4.371 4.95293 4.01606 5.16898C3.66112 5.37731 3.27146 5.48148 2.84708 5.48148ZM11.4929 5.48148C11.0608 5.48148 10.6673 5.37731 10.3124 5.16898C9.95742 4.95293 9.67192 4.66744 9.45587 4.3125C9.24754 3.95756 9.14337 3.5679 9.14337 3.14352C9.14337 2.71142 9.24754 2.3179 9.45587 1.96296C9.67192 1.60802 9.95742 1.32639 10.3124 1.11806C10.6673 0.902006 11.0608 0.793981 11.4929 0.793981C11.925 0.793981 12.3147 0.902006 12.6619 1.11806C13.0168 1.32639 13.2985 1.60802 13.5068 1.96296C13.7228 2.3179 13.8309 2.71142 13.8309 3.14352C13.8309 3.5679 13.7228 3.95756 13.5068 4.3125C13.2985 4.66744 13.0168 4.95293 12.6619 5.16898C12.3147 5.37731 11.925 5.48148 11.4929 5.48148ZM20.1387 5.48148C19.7066 5.48148 19.3131 5.37731 18.9582 5.16898C18.6033 4.95293 18.3216 4.66744 18.1133 4.3125C17.9049 3.95756 17.8008 3.5679 17.8008 3.14352C17.8008 2.71142 17.9049 2.3179 18.1133 1.96296C18.3216 1.60802 18.6033 1.32639 18.9582 1.11806C19.3131 0.902006 19.7066 0.793981 20.1387 0.793981C20.5708 0.793981 20.9644 0.902006 21.3193 1.11806C21.6742 1.32639 21.9559 1.60802 22.1642 1.96296C22.3803 2.3179 22.4883 2.71142 22.4883 3.14352C22.4883 3.5679 22.3803 3.95756 22.1642 4.3125C21.9559 4.66744 21.6742 4.95293 21.3193 5.16898C20.9644 5.37731 20.5708 5.48148 20.1387 5.48148Z" fill="black"/>
</svg>
