<svg width="11" height="21" viewBox="0 0 11 21" fill="none" xmlns="http://www.w3.org/2000/svg">
<path d="M4.67188 19.8359L3.39844 18.7188C3.28385 18.6198 3.20312 18.5 3.15625 18.3594C3.11458 18.2188 3.09375 18.0833 3.09375 17.9531V10.5859C2.45833 10.2995 1.90885 9.91406 1.44531 9.42969C0.981771 8.94531 0.622396 8.39323 0.367188 7.77344C0.117188 7.14844 -0.0078125 6.48698 -0.0078125 5.78906C-0.0078125 5.0651 0.125 4.38802 0.390625 3.75781C0.661458 3.1224 1.03646 2.56771 1.51562 2.09375C1.99479 1.61458 2.54948 1.24219 3.17969 0.976562C3.8151 0.705729 4.4974 0.570312 5.22656 0.570312C5.94531 0.570312 6.61979 0.705729 7.25 0.976562C7.88542 1.24219 8.44271 1.61458 8.92188 2.09375C9.40104 2.57292 9.77604 3.13021 10.0469 3.76562C10.3177 4.39583 10.4531 5.07031 10.4531 5.78906C10.4531 6.82552 10.1615 7.76562 9.57812 8.60938C8.99479 9.45312 8.16667 10.1328 7.09375 10.6484L8.72656 12.2812C8.8776 12.4427 8.95312 12.6276 8.95312 12.8359C8.95833 13.0443 8.88542 13.2266 8.73438 13.3828L6.96875 15.1328L8.17969 16.3281C8.33073 16.4844 8.40625 16.6667 8.40625 16.875C8.41146 17.0833 8.33854 17.2682 8.1875 17.4297L5.77344 19.8438C5.61198 19.9948 5.42969 20.0651 5.22656 20.0547C5.02865 20.0443 4.84375 19.9714 4.67188 19.8359ZM5.22656 18.5859L6.92188 16.8672L5.8125 15.7812V14.4688L7.46875 12.8438L5.9375 11.3047V9.71875C6.58854 9.5625 7.15625 9.29427 7.64062 8.91406C8.13021 8.52865 8.50781 8.06771 8.77344 7.53125C9.04427 6.98958 9.17969 6.40885 9.17969 5.78906C9.17969 5.0599 9.0026 4.39844 8.64844 3.80469C8.29427 3.20573 7.81771 2.72917 7.21875 2.375C6.61979 2.02083 5.95573 1.84375 5.22656 1.84375C4.67448 1.84375 4.15625 1.94792 3.67188 2.15625C3.19271 2.35938 2.77344 2.64062 2.41406 3C2.05469 3.35938 1.77083 3.77865 1.5625 4.25781C1.35938 4.73177 1.25781 5.24219 1.25781 5.78906C1.25781 6.41927 1.38802 7.0026 1.64844 7.53906C1.91406 8.07552 2.27865 8.53125 2.74219 8.90625C3.21094 9.27604 3.75 9.52865 4.35938 9.66406V17.7266L5.22656 18.5859ZM5.22656 5.55469C4.8724 5.55469 4.57292 5.43229 4.32812 5.1875C4.08333 4.9375 3.96094 4.63542 3.96094 4.28125C3.96094 3.93229 4.08333 3.63542 4.32812 3.39062C4.57292 3.14583 4.8724 3.02344 5.22656 3.02344C5.57552 3.02344 5.8724 3.14583 6.11719 3.39062C6.36719 3.63542 6.49219 3.93229 6.49219 4.28125C6.49219 4.63542 6.36719 4.9375 6.11719 5.1875C5.8724 5.43229 5.57552 5.55469 5.22656 5.55469Z" fill="#1098F7"/>
</svg>
