<svg width="19" height="27" viewBox="0 0 19 27" fill="none" xmlns="http://www.w3.org/2000/svg">
<path d="M0.949074 13.125V10.8333C0.949074 10.5324 1.0571 10.2778 1.27315 10.0694C1.4892 9.86111 1.74383 9.75694 2.03704 9.75694C2.34568 9.75694 2.60802 9.86111 2.82407 10.0694C3.04012 10.2778 3.14815 10.5324 3.14815 10.8333V13.044C3.14815 14.3557 3.42207 15.5054 3.96991 16.4931C4.52546 17.473 5.30093 18.233 6.2963 18.7731C7.29167 19.3133 8.44522 19.5833 9.75695 19.5833C11.0764 19.5833 12.2299 19.3133 13.2176 18.7731C14.2052 18.233 14.9769 17.473 15.5324 16.4931C16.088 15.5054 16.3657 14.3557 16.3657 13.044V10.8333C16.3657 10.5324 16.4738 10.2778 16.6898 10.0694C16.9059 9.86111 17.1644 9.75694 17.4653 9.75694C17.7662 9.75694 18.0208 9.86111 18.2292 10.0694C18.4452 10.2778 18.5532 10.5324 18.5532 10.8333V13.125C18.5532 14.7145 18.2253 16.1188 17.5694 17.338C16.9136 18.5571 16.0031 19.5332 14.838 20.2662C13.6806 20.9992 12.3418 21.439 10.8218 21.5856V23.9583H15.0694C15.3704 23.9583 15.6289 24.0625 15.8449 24.2708C16.061 24.4869 16.169 24.7454 16.169 25.0463C16.169 25.3395 16.061 25.5903 15.8449 25.7986C15.6289 26.0147 15.3704 26.1227 15.0694 26.1227H4.44444C4.14352 26.1227 3.88503 26.0147 3.66898 25.7986C3.45293 25.5903 3.34491 25.3395 3.34491 25.0463C3.34491 24.7454 3.45293 24.4869 3.66898 24.2708C3.88503 24.0625 4.14352 23.9583 4.44444 23.9583H8.69213V21.5856C7.17207 21.439 5.82948 20.9992 4.66435 20.2662C3.49923 19.5332 2.58873 18.5571 1.93287 17.338C1.27701 16.1188 0.949074 14.7145 0.949074 13.125ZM9.75695 17.1875C8.97762 17.1875 8.27932 17.0062 7.66204 16.6435C7.05247 16.2731 6.57022 15.7639 6.21528 15.1157C5.86034 14.4676 5.68287 13.7153 5.68287 12.8588V5.06944C5.68287 4.21296 5.86034 3.46065 6.21528 2.8125C6.57022 2.16435 7.05247 1.65895 7.66204 1.2963C8.27932 0.925925 8.97762 0.74074 9.75695 0.74074C10.5363 0.74074 11.2307 0.925925 11.8403 1.2963C12.4576 1.65895 12.9398 2.16435 13.287 2.8125C13.642 3.46065 13.8194 4.21296 13.8194 5.06944V12.8588C13.8194 13.7153 13.642 14.4676 13.287 15.1157C12.9398 15.7639 12.4576 16.2731 11.8403 16.6435C11.2307 17.0062 10.5363 17.1875 9.75695 17.1875Z" fill="black"/>
</svg>
