<svg width="14" height="15" viewBox="0 0 14 15" fill="none" xmlns="http://www.w3.org/2000/svg">
<path d="M1.91406 14.6016C0.632812 14.6016 -0.0078125 14.1823 -0.0078125 13.3438C-0.0078125 12.8281 0.148438 12.2812 0.460938 11.7031C0.773438 11.125 1.22656 10.5807 1.82031 10.0703C2.41406 9.55469 3.13021 9.13802 3.96875 8.82031C4.8125 8.4974 5.76302 8.33594 6.82031 8.33594C7.8776 8.33594 8.82552 8.4974 9.66406 8.82031C10.5078 9.13802 11.2266 9.55469 11.8203 10.0703C12.4141 10.5807 12.8672 11.125 13.1797 11.7031C13.4922 12.2812 13.6484 12.8281 13.6484 13.3438C13.6484 14.1823 13.0078 14.6016 11.7266 14.6016H1.91406ZM1.55469 13.4062H12.0938C12.1927 13.4062 12.263 13.3906 12.3047 13.3594C12.3464 13.3281 12.3672 13.2708 12.3672 13.1875C12.3672 12.8646 12.2474 12.4974 12.0078 12.0859C11.7682 11.6693 11.4115 11.2682 10.9375 10.8828C10.4635 10.4922 9.88281 10.1693 9.19531 9.91406C8.50781 9.65885 7.71615 9.53125 6.82031 9.53125C5.92969 9.53125 5.13802 9.65885 4.44531 9.91406C3.75781 10.1693 3.17708 10.4922 2.70312 10.8828C2.22917 11.2682 1.8724 11.6693 1.63281 12.0859C1.39323 12.4974 1.27344 12.8646 1.27344 13.1875C1.27344 13.2708 1.29427 13.3281 1.33594 13.3594C1.3776 13.3906 1.45052 13.4062 1.55469 13.4062ZM6.82031 7.35938C6.20052 7.35938 5.63542 7.19531 5.125 6.86719C4.61458 6.53906 4.20573 6.09896 3.89844 5.54688C3.59635 4.98958 3.44531 4.3776 3.44531 3.71094C3.44531 3.04948 3.59635 2.44792 3.89844 1.90625C4.20573 1.35938 4.61458 0.924479 5.125 0.601562C5.63542 0.278646 6.20052 0.117188 6.82031 0.117188C7.45052 0.117188 8.02083 0.276042 8.53125 0.59375C9.04167 0.911458 9.44792 1.34115 9.75 1.88281C10.0521 2.42448 10.2031 3.02865 10.2031 3.69531C10.2031 4.36719 10.0495 4.98177 9.74219 5.53906C9.4401 6.09115 9.03385 6.53385 8.52344 6.86719C8.01302 7.19531 7.44531 7.35938 6.82031 7.35938ZM6.82031 6.16406C7.20573 6.16406 7.55729 6.05469 7.875 5.83594C8.19792 5.61719 8.45312 5.32031 8.64062 4.94531C8.83333 4.57031 8.92969 4.15365 8.92969 3.69531C8.92969 3.24219 8.83333 2.83594 8.64062 2.47656C8.45312 2.11719 8.20052 1.83333 7.88281 1.625C7.5651 1.41667 7.21094 1.3125 6.82031 1.3125C6.4401 1.3125 6.09115 1.41927 5.77344 1.63281C5.45573 1.84115 5.20052 2.1276 5.00781 2.49219C4.8151 2.85156 4.71875 3.25781 4.71875 3.71094C4.71875 4.16927 4.8151 4.58594 5.00781 4.96094C5.20052 5.33073 5.45573 5.625 5.77344 5.84375C6.09635 6.05729 6.44531 6.16406 6.82031 6.16406Z" fill="#1098F7"/>
</svg>
