<svg width="16" height="16" viewBox="0 0 16 16" fill="none" xmlns="http://www.w3.org/2000/svg">
<path d="M0.509458 14.9815C0.373656 14.8519 0.28415 14.6975 0.24094 14.5185C0.19773 14.3395 0.19773 14.1605 0.24094 13.9815C0.290322 13.8025 0.379829 13.6512 0.509458 13.5278L6.19464 7.82407L0.509458 2.12963C0.379829 2.00617 0.293409 1.85494 0.250199 1.67593C0.206989 1.49691 0.206989 1.3179 0.250199 1.13889C0.293409 0.959876 0.379829 0.805555 0.509458 0.675926C0.645261 0.540123 0.802668 0.450617 0.98168 0.407407C1.16069 0.364197 1.33971 0.364197 1.51872 0.407407C1.69773 0.450617 1.85205 0.537037 1.98168 0.666667L7.67612 6.36111L13.3613 0.666667C13.4909 0.530864 13.6453 0.444444 13.8243 0.407407C14.0033 0.364197 14.1792 0.364197 14.3521 0.407407C14.5311 0.450617 14.6916 0.540123 14.8335 0.675926C14.9632 0.805555 15.0496 0.959876 15.0928 1.13889C15.1422 1.3179 15.1422 1.49691 15.0928 1.67593C15.0496 1.84877 14.9632 2.00309 14.8335 2.13889L9.14835 7.82407L14.8335 13.5185C14.9632 13.6543 15.0496 13.8117 15.0928 13.9907C15.136 14.1636 15.136 14.3395 15.0928 14.5185C15.0496 14.6975 14.9632 14.8519 14.8335 14.9815C14.6977 15.1173 14.5403 15.2068 14.3613 15.25C14.1823 15.2932 14.0033 15.2932 13.8243 15.25C13.6453 15.2068 13.4909 15.1204 13.3613 14.9907L7.67612 9.2963L1.98168 14.9907C1.85205 15.1204 1.69773 15.2068 1.51872 15.25C1.34588 15.2932 1.16687 15.2932 0.98168 15.25C0.802668 15.2068 0.645261 15.1173 0.509458 14.9815Z" fill="black"/>
</svg>
